<?xml version="1.0" encoding="utf-8"?>
<!-- Svg Vector Icons : http://www.onlinewebfonts.com/icon -->
<!DOCTYPE svg PUBLIC "-//W3C//DTD SVG 1.1//EN" "http://www.w3.org/Graphics/SVG/1.1/DTD/svg11.dtd">
<svg version="1.1" xmlns="http://www.w3.org/2000/svg" xmlns:xlink="http://www.w3.org/1999/xlink" x="0px" y="0px" viewBox="0 0 1000 1000" enable-background="new 0 0 1000 1000" xml:space="preserve">
<metadata> Svg Vector Icons : http://www.onlinewebfonts.com/icon </metadata>
<g><path d="M206.1,11.1c2.3-0.1,4.6-0.1,6.9-0.4c11.9-1,22.1,1.9,28.7,12.8c14.8,24,29.7,48,43.8,72.6c16.3,28.4,31.3,57.6,47.3,86.3c4.1,7.7,9.8,14.7,14.6,22.1c4.4,7,8.6,14.2,12.7,21.2c8.4,15.9,8,31.9-4.5,44.6c-17.8,18.2-37.4,35.1-56.3,52.4c-15.8,14.5-32.2,28.4-47.6,43.2c-12,11.6-15.1,26.1-7,41.4c12.5,23.4,24.9,46.8,38.6,69.7C334.1,561.7,399,633.7,481,689.2c31.6,21.5,64.5,41.2,97.7,60c31.3,17.7,43.5,14.7,67.8-12.4c22.6-25.1,44.4-50.6,66.9-75.9c5.4-6.1,11.9-11.5,18.2-16.7c12.8-10.8,26.8-12,41.5-4.6c4.1,2,8.5,3.8,12.1,6.4c39,27.9,82.6,47.6,123.8,71.3c22.1,12.7,43.6,26.3,65.3,39.3c11.7,6.9,16.4,17,15.6,30.9c-2.2,39.1-8.7,77.5-31.4,110.5c-9.5,13.7-23,25.7-36.6,35.4c-37.7,26.4-79.8,42.7-124.6,52.7c-40.7,9.1-81.3,5.8-120.3-6.4c-75.3-23.2-149.5-49.8-217.8-90.1c-62-36.7-118.4-81-170.6-130.5c-66.1-62.9-125.1-131.5-172.8-209.6c-31.1-50.7-53.3-105.3-73.4-161c-12.2-33.6-24.2-66.9-29.6-102.5c-6.2-40.3-1.9-79.1,11-117.3c11.6-34.5,26.1-67.5,48-97C89,48.8,110.5,32,138.3,24.5c22.3-5.9,44.8-10.6,67.2-15.8C205.8,9.5,205.9,10.4,206.1,11.1z"/></g>
</svg>